<?xml version="1.0" standalone="no"?>
<!DOCTYPE svg PUBLIC "-//W3C//DTD SVG 20010904//EN"
 "http://www.w3.org/TR/2001/REC-SVG-20010904/DTD/svg10.dtd">
<svg version="1.0" xmlns="http://www.w3.org/2000/svg"
 width="16.000000pt" height="16.000000pt" viewBox="0 0 16.000000 16.000000"
 preserveAspectRatio="xMidYMid meet">

<g transform="translate(0.000000,16.000000) scale(0.100000,-0.100000)"
fill="#000000" stroke="none">
<path d="M52 148 c-7 -7 -12 -18 -12 -25 0 -7 -9 -22 -20 -33 -23 -23 -26 -49
-7 -74 10 -13 23 -16 57 -13 l45 4 -47 1 -48 2 0 40 0 40 58 1 c31 0 51 3 45
6 -7 2 -13 12 -13 22 0 19 -18 41 -35 41 -6 0 -16 -5 -23 -12z m48 -34 c0 -8
-10 -14 -25 -14 -18 0 -25 5 -25 19 0 11 6 21 13 24 15 6 37 -11 37 -29z"/>
<path d="M117 73 c-12 -12 -7 -23 7 -17 11 4 13 0 10 -18 -5 -21 -4 -21 6 -5
18 28 -2 62 -23 40z"/>
</g>
</svg>
